<svg xmlns="http://www.w3.org/2000/svg" width="39.969" height="31.182" viewBox="0 0 39.969 31.182">
  <g id="ico-easyintro-06" opacity="0.498">
    <g id="그룹_2014" data-name="그룹 2014" transform="translate(2.684 11.572)">
      <path id="패스_9831" data-name="패스 9831" d="M342.482,323.608a.482.482,0,0,1-.3-.859l1.128-.9a1.772,1.772,0,0,0,.548-.752l1.67-4.383a4.639,4.639,0,0,1,2.78-2.722l2.692-.961a.482.482,0,0,1,.325.908l-2.692.961a3.677,3.677,0,0,0-2.2,2.157l-1.669,4.383a2.737,2.737,0,0,1-.847,1.161l-1.128.9A.478.478,0,0,1,342.482,323.608Z" transform="translate(-342 -313.001)" fill="#fff"/>
    </g>
    <g id="그룹_2015" data-name="그룹 2015" transform="translate(6.863 14.975)">
      <path id="패스_9832" data-name="패스 9832" d="M355.482,337.865a.482.482,0,0,1-.129-.946l4.759-1.328a2.563,2.563,0,0,0,1.122-.656l7.58-7.58a1.637,1.637,0,0,0-2.283-2.346l-3.123,2.958a2.368,2.368,0,0,1-3.481-.247.482.482,0,1,1,.753-.6,1.4,1.4,0,0,0,2.065.149l3.122-2.958a2.6,2.6,0,0,1,3.629,3.728l-7.58,7.58a3.536,3.536,0,0,1-1.545.9l-4.76,1.328A.473.473,0,0,1,355.482,337.865Z" transform="translate(-355 -323.59)" fill="#fff"/>
    </g>
    <g id="그룹_2016" data-name="그룹 2016" transform="translate(0 20.666)">
      <path id="패스_9833" data-name="패스 9833" d="M338.909,351.811a.482.482,0,0,1-.418-.241l-4.777-8.275a.481.481,0,0,1,.176-.659l2.212-1.277a.481.481,0,0,1,.659.176l4.777,8.275a.481.481,0,0,1-.176.659l-2.212,1.277A.479.479,0,0,1,338.909,351.811Zm-4.119-8.581,4.3,7.44,1.377-.795-4.3-7.44Z" transform="translate(-333.649 -341.295)" fill="#fff"/>
    </g>
    <g id="그룹_2017" data-name="그룹 2017" transform="translate(11.684 8.678)">
      <path id="패스_9834" data-name="패스 9834" d="M370.482,314.607a.482.482,0,0,1-.482-.482v-9.643a.482.482,0,1,1,.964,0v9.643A.482.482,0,0,1,370.482,314.607Z" transform="translate(-370 -304)" fill="#fff"/>
    </g>
    <g id="그룹_2018" data-name="그룹 2018" transform="translate(31.934 16.393)">
      <path id="패스_9835" data-name="패스 9835" d="M440.393,333.786h-4.5a2.893,2.893,0,0,1,0-5.786h4.5a.321.321,0,0,1,0,.643h-4.5a2.25,2.25,0,0,0,0,4.5h4.5a.321.321,0,0,1,0,.643Z" transform="translate(-433 -328)" fill="#fff"/>
    </g>
    <g id="그룹_2019" data-name="그룹 2019" transform="translate(35.148 6.429)">
      <path id="패스_9836" data-name="패스 9836" d="M446.7,301.821a.482.482,0,0,1-.482-.482v-3.375h-2.732a.482.482,0,1,1,0-.964H446.7a.482.482,0,0,1,.482.482v3.857A.482.482,0,0,1,446.7,301.821Z" transform="translate(-443 -297)" fill="#fff"/>
    </g>
    <g id="그룹_2020" data-name="그룹 2020" transform="translate(11.684 6.429)">
      <path id="패스_9837" data-name="패스 9837" d="M397.16,318.535H370.482a.482.482,0,0,1,0-.964h26.2v-4.982a.482.482,0,0,1,.482-.482h.161v-4.5h-.161a.482.482,0,0,1-.482-.482v-4.982H372.571a2.571,2.571,0,1,1,0-5.143h.482a.482.482,0,0,1,0,.964h-.482a1.607,1.607,0,1,0,0,3.214H397.16a.482.482,0,0,1,.482.482v4.982h.161a.482.482,0,0,1,.482.482v5.464a.482.482,0,0,1-.482.482h-.161v4.982A.482.482,0,0,1,397.16,318.535Z" transform="translate(-370 -297)" fill="#fff"/>
    </g>
    <g id="그룹_2021" data-name="그룹 2021" transform="translate(25.184 3.465)">
      <path id="패스_9838" data-name="패스 9838" d="M423.511,295.745a.482.482,0,0,1-.454-.321l-2.314-6.55-8.1,2.807a.482.482,0,1,1-.316-.911l8.556-2.964a.482.482,0,0,1,.612.295l2.473,7a.483.483,0,0,1-.454.643Z" transform="translate(-412 -287.779)" fill="#fff"/>
    </g>
    <g id="그룹_2022" data-name="그룹 2022" transform="translate(25.189 0.211)">
      <path id="패스_9839" data-name="패스 9839" d="M419.32,282.1a.481.481,0,0,1-.382-.188l-2.392-3.1-3.754,2.9a.482.482,0,1,1-.589-.763l4.136-3.19a.482.482,0,0,1,.676.087l2.686,3.482a.482.482,0,0,1-.382.777Z" transform="translate(-412.015 -277.655)" fill="#fff"/>
    </g>
    <g id="그룹_2023" data-name="그룹 2023" transform="translate(14.577)">
      <path id="패스_9840" data-name="패스 9840" d="M384.786,288.571a5.786,5.786,0,1,1,5.786-5.786A5.792,5.792,0,0,1,384.786,288.571Zm0-10.607a4.821,4.821,0,1,0,4.821,4.821A4.827,4.827,0,0,0,384.786,277.964Z" transform="translate(-379 -277)" fill="#fff"/>
    </g>
    <g id="그룹_2024" data-name="그룹 2024" transform="translate(25.827 6.691)">
      <path id="패스_9841" data-name="패스 9841" d="M422.678,302.376a.321.321,0,0,1-.3-.213l-.954-2.671a1.933,1.933,0,0,1-2.051-.945l-4.935,1.88a.322.322,0,0,1-.229-.6l5.216-1.987a.321.321,0,0,1,.417.192,1.285,1.285,0,0,0,1.669.769.321.321,0,0,1,.417.193l1.055,2.954a.321.321,0,0,1-.195.41A.317.317,0,0,1,422.678,302.376Z" transform="translate(-414 -297.817)" fill="#fff"/>
    </g>
  </g>
</svg>
